<?xml version="1.0" encoding="UTF-8"?>
<svg id="Capa_2" data-name="Capa 2" xmlns="http://www.w3.org/2000/svg" viewBox="0 0 1395.48 314.12">
  <defs>
    <style>
      .cls-1 {
        stroke-width: 0px;
      }
    </style>
  </defs>
  <g id="Capa_1-2" data-name="Capa 1">
    <g>
      <path class="cls-1" d="M736.24,3.24h40.55v231.95c-1.44.14-2.94.42-4.44.42-23.38.01-46.77.1-70.15-.06-14.45-.1-28.44-2.83-41.14-9.95-29.57-16.58-40.23-43.36-37.87-75.46,3.86-52.48,50.85-83.68,103.21-69.56,3.01.81,6.01,1.65,9.84,2.71V3.24ZM736.26,158.45c0-12.85-.21-25.71.11-38.55.12-4.58-1.42-7.01-5.72-8.08-1.72-.43-3.33-1.27-5.03-1.77-25.89-7.6-50.87,3.24-57.64,26.37-2.69,9.2-3.14,19.62-2.09,29.21,2.32,21.37,13.62,33.61,33.97,37.04,10.83,1.83,22.08,1.33,33.14,1.44,1.07.01,3.08-3.07,3.11-4.74.26-13.64.14-27.28.15-40.93Z"/>
      <path class="cls-1" d="M45.01,98.19h96.33v35.21H44.91v101.88H0V3.35h141.22v34.67H45.01v60.17Z"/>
      <path class="cls-1" d="M275.28,238.68c-27.05-.63-50.93-8.37-68.37-29.57-38.97-47.38-11.45-119.98,49.13-130.27,18.09-3.07,35.97-2.29,53.31,4.1,36.49,13.43,56.7,48.12,50.73,86.77-6.05,39.2-34.77,65.55-74.46,68.33-3.56.25-7.12.45-10.35.65ZM232.13,157.17c1.23,7.18,1.8,14.54,3.81,21.49,5.42,18.73,20.22,29.67,38.97,29.6,19.99-.08,34.63-10.77,40.02-29.82,3.67-12.95,4.01-26.14.73-39.27-4.92-19.69-19.08-31.11-39.14-31.73-19.38-.6-35.17,10.7-40.74,29.77-1.86,6.38-2.45,13.13-3.66,19.96Z"/>
      <path class="cls-1" d="M1233.23,80.03c14.48,0,27.94-.14,41.4.19,1.6.04,3.81,2.34,4.6,4.1,11.17,24.88,22.13,49.84,33.16,74.79.48,1.08,1.01,2.13,1.91,4.01,1.16-2.4,2.08-4.18,2.9-6.01,10.73-23.99,21.55-47.95,32.08-72.03,1.68-3.85,3.66-5.26,7.89-5.16,12.47.3,24.95.11,38.32.11-.93,2.3-1.56,4.07-2.34,5.77-34.17,74.34-68.39,148.65-102.44,223.05-1.86,4.07-3.99,5.38-8.39,5.27-12.41-.33-24.83-.11-37.96-.11,1.19-2.85,2.01-5.01,2.98-7.1,14.67-31.75,29.31-63.52,44.14-95.21,1.58-3.37,1.64-5.92,0-9.33-18.6-38.65-37-77.38-55.45-116.1-.83-1.75-1.59-3.54-2.79-6.22Z"/>
      <path class="cls-1" d="M978.43,165.83c.53,22.16,16.66,39.23,38.66,42.51,20.56,3.06,39.3-1.77,56.93-12.07,3.55-2.07,7.01-4.3,11.54-7.09,0,10.04.19,19.22-.18,28.37-.07,1.58-2.3,3.49-3.97,4.54-21.06,13.24-44.31,17.44-68.82,16.24-18.11-.89-34.62-6.24-48.81-17.77-21.67-17.6-29-41.17-27.92-68.08.47-11.77,2.69-23.25,8.14-33.78,14.76-28.54,38.76-41.84,70.55-41.5,42.09.46,70.35,28.01,72.98,70.96.35,5.66.05,11.36.05,17.66h-109.13ZM1049.07,140.81c-1.9-23.42-15.31-36.6-35.74-35.7-19.54.86-34.33,16.27-33.91,35.7h69.65Z"/>
      <path class="cls-1" d="M1185.05,235.36h-41.11v-124.11h-21.6v-31.01h20.96c.48-8.52.69-16.54,1.43-24.52,2.47-26.53,19.43-47.48,43.47-53.57,13.35-3.38,26.72-2.53,39.99.91,3.32.86,4.84,2.41,4.72,6.17-.3,9.46-.1,18.94-.1,28-7.79-.41-15.08-1.29-22.35-1.08-13.66.4-21.94,7.41-24.19,20.76-1.24,7.32-1.12,14.87-1.66,22.96h26.53v31.1h-26.09v124.4Z"/>
      <path class="cls-1" d="M491.18,236.96c-11.69,0-23.39-.3-35.07.13-5.77.21-8.24-1.96-7.74-7.37.4-4.38-1.52-6.51-5.16-8.76-28.51-17.65-41.75-44.13-43.29-76.91-.37-7.87,5.28-12.59,12.01-14.4,13.8-3.72,27.77-7.16,41.89-9.31,11.83-1.8,24-2.44,35.97-2.13,24.4.64,48.88,1.13,72.64,7.97,16.16,4.65,21.18,11.24,19.46,27.22-.54,5.04-1.68,10.11-3.29,14.91-5.32,15.89-12.54,30.77-25.49,42-4.44,3.85-9.44,7.14-14.45,10.25-3.22,2.01-4.6,4.25-4.49,8.14.21,7.74-.52,8.24-8.5,8.25-11.49,0-22.98,0-34.48,0ZM417.97,157.79c-.1,24.41,25.44,61.09,68.89,61.45,41.01.34,79.11-29.2,77.3-60.86-48.62,10.69-97.22,11.6-146.19-.59ZM419.93,141.89c29.98,14.48,128.26,11.05,142.88-.75-17.19-13.56-123.51-12.36-142.88.75Z"/>
      <path class="cls-1" d="M873.99,188.68c0,11.47.05,22.95-.02,34.42-.05,8.25-6.26,13.88-15.02,13.82-8.44-.06-14.58-5.68-14.59-13.65-.03-23.54-.06-47.08.26-70.61.03-2.44,1.76-5.74,3.75-7.09,5.21-3.54,6.38-11.98,1.93-16.52-2.57-2.62-5.09-5.54-6.68-8.79-7.9-16.16-15.58-32.43-23.15-48.75-11.41-24.59-2.49-53.48,21.16-66.38,12.99-7.09,31.19-5.65,44.15,6.27,16.52,15.21,19.56,33.38,13.41,54.26-6.08,20.64-17.01,39-26.24,58.17-.74,1.54-2.04,2.91-3.33,4.09-6.5,5.92-5.81,12.92,1.25,18.12,1.78,1.31,2.82,4.63,2.88,7.06.29,11.86.13,23.73.13,35.6.04,0,.08,0,.12,0ZM854.2,15.75l-1.57-.86c-1.71,2.68-3.83,5.19-5.04,8.08-4.83,11.56-6.4,23.72-4.37,36.02,2.02,12.25,4.91,24.36,7.51,36.51.46,2.15,1.36,4.2,2.06,6.29.47-.09.94-.19,1.41-.28V15.75ZM863.95,101.45c.48.09.97.17,1.45.26.34-.82.83-1.61,1.01-2.46,3.04-13.87,6.63-27.65,8.88-41.64,1.94-12.06.12-24.08-4.87-35.37-1.18-2.68-3.42-4.89-5.17-7.32-.43.32-.87.64-1.3.96v85.58ZM840.52,98.23c.89-.19,1.78-.38,2.67-.56-7.46-27.1-15.39-54.19-1.95-81.77-12.19,7.65-17.59,18.86-16.35,32.23.91,9.86,3.9,19.64,6.84,29.18,2.22,7.2,5.82,13.97,8.8,20.92ZM876.91,16c13.98,27.47,5.39,54.57-.52,81.96,3.41-4.59,5.79-9.4,7.87-14.33,5.63-13.34,11.17-26.78,9.16-41.75-1.46-10.92-5.96-20.15-16.52-25.88ZM860.68,212.92c-.88-.02-1.76-.05-2.64-.07-1.91,2.52-4.58,4.79-5.52,7.63-1.11,3.32,3.12,7.39,6.77,7.11,4.09-.31,7.05-2.99,6.51-6.79-.4-2.81-3.32-5.27-5.12-7.88Z"/>
      <path class="cls-1" d="M492.86,70.1c1.07,4.47,3.94,5.45,5.01,11.23.22,1.18.54,3.01.18,5.34-.59,3.87-2.66,6.68-3.49,7.79-1.7,2.27-2.46,2.21-3.32,3.94-1.17,2.39-1.08,4.87-.8,6.63-.7-.52-1.87-1.56-2.67-3.23-1.25-2.62-.76-5.1-.54-6.16.48-2.27,1.14-1.96,2.43-5.2.17-.43,1.72-4.43,1.52-8.3-.24-4.36-2.02-5.19-2.63-8.7-.73-4.19,4.53-14.31,5.62-13.83.73.32-2.7,4.65-1.3,10.47Z"/>
      <path class="cls-1" d="M526.66,92.09h0c0,4.45-3.77,6.78-6.41,10.47-1.1,1.53-2.45,3.93-3.22,7.48-.49-.69-1.03-1.71-1.41-2.99-.33-1.14-.46-2.39-.13-3.67.05-.19.16-.56.36-1.02,1.37-2.98,5.67-6.47,6.63-10.03,1.01-3.73-1.46-8.25-3.94-10.51-.33-.3-.39-.48-.27-.58.17-.15.67-.1.86-.06.78.14,3.83,1.26,5.87,4.86,1.22,2.15,1.6,4.32,1.65,6.04Z"/>
      <path class="cls-1" d="M460.8,99.59c-.14.92-.4,3.38.61,6.05.82,2.17,1.97,3.17,1.81,3.33-.38.36-6.54-3-7.26-7.9-.68-4.63,3.87-6.72,4.24-12.21.15-2.23-.49-5.41-4.11-9.46.82.16,4.75,1,7.07,4.64,2.12,3.33,1.52,6.86,1.41,7.45-.71,3.86-3.13,3.93-3.77,8.1Z"/>
    </g>
  </g>
</svg>